<?xml version="1.0" standalone="no"?>
<!DOCTYPE svg PUBLIC "-//W3C//DTD SVG 20010904//EN"
 "http://www.w3.org/TR/2001/REC-SVG-20010904/DTD/svg10.dtd">
<svg version="1.0" xmlns="http://www.w3.org/2000/svg"
 width="697.000000pt" height="382.000000pt" viewBox="0 0 697.000000 382.000000"
 preserveAspectRatio="xMidYMid meet">

<g transform="translate(0.000000,382.000000) scale(0.100000,-0.100000)"
fill="#000000" stroke="none">
<path d="M3356 3578 c19 -106 34 -202 34 -213 0 -15 -36 -44 -132 -108 -73
-48 -158 -102 -188 -120 l-54 -32 -51 -245 c-28 -135 -55 -255 -59 -267 -6
-18 -2 -22 24 -28 16 -4 30 -13 30 -20 0 -12 -20 -20 -95 -40 -6 -1 -89 -129
-185 -283 l-174 -280 -137 -43 c-133 -42 -138 -44 -143 -74 -3 -16 -13 -85
-22 -153 l-17 -123 -139 -95 c-77 -51 -143 -94 -147 -94 -21 0 -122 134 -158
210 -37 78 -133 252 -133 240 0 -3 9 -51 19 -108 l19 -103 -42 -31 c-22 -16
-69 -46 -102 -66 l-62 -37 -29 -140 -30 -140 -107 -172 -107 -172 -71 -23
c-79 -25 -82 -29 -93 -127 l-7 -63 -167 -110 c-155 -102 -168 -113 -194 -164
-15 -30 -34 -54 -43 -54 -8 0 -75 9 -149 21 l-133 20 -74 -34 c-57 -27 -175
-108 -208 -144 -3 -3 230 -3 517 0 287 3 523 2 525 -3 4 -10 365 -29 550 -28
142 0 150 -1 201 -27 l54 -27 344 10 c189 5 364 7 389 5 80 -8 1195 -90 1198
-88 1 1 -41 32 -93 69 -52 37 -95 70 -95 72 0 3 361 5 803 4 1719 -2 2517 0
2517 8 0 4 -122 129 -271 277 -149 149 -287 287 -308 309 -93 98 -351 327
-362 320 -7 -4 -9 -3 -6 3 4 6 0 17 -9 24 -9 7 -49 52 -90 100 -74 88 -123
122 -439 312 -33 20 -103 72 -156 116 l-96 80 -79 172 c-73 158 -82 174 -124
202 -25 17 -73 53 -107 80 -35 27 -63 45 -63 40 0 -4 20 -61 45 -126 l45 -118
-50 -110 -50 -111 0 -114 c0 -63 -3 -114 -7 -113 -5 0 -62 19 -128 42 l-120
42 -91 164 c-64 116 -125 207 -205 309 -63 80 -119 152 -125 161 -7 9 -19 106
-28 215 l-15 200 -39 40 c-21 23 -92 104 -158 180 -65 77 -147 171 -180 210
-36 42 -81 111 -109 166 -26 52 -53 99 -60 105 -23 19 -73 110 -80 145 -6 29
-141 290 -150 290 -1 0 13 -87 31 -192z m425 -1065 c13 -16 12 -17 -3 -4 -17
13 -22 21 -14 21 2 0 10 -8 17 -17z m339 -279 c0 -2 -9 0 -20 6 -11 6 -20 13
-20 16 0 2 9 0 20 -6 11 -6 20 -13 20 -16z m-744 -382 c-17 -16 -18 -16 -5 5
7 12 15 20 18 17 3 -2 -3 -12 -13 -22z m1044 -497 c14 -19 14 -19 -2 -6 -10 7
-18 18 -18 24 0 6 1 8 3 6 1 -2 9 -13 17 -24z m55 -65 c10 -11 16 -20 13 -20
-3 0 -13 9 -23 20 -10 11 -16 20 -13 20 3 0 13 -9 23 -20z m60 -70 c10 -11 16
-20 13 -20 -3 0 -13 9 -23 20 -10 11 -16 20 -13 20 3 0 13 -9 23 -20z m-2775
-154 c0 -2 -8 -10 -17 -17 -16 -13 -17 -12 -4 4 13 16 21 21 21 13z m2937 -38
c-3 -8 -6 -5 -6 6 -1 11 2 17 5 13 3 -3 4 -12 1 -19z m-2816 -135 c13 -16 12
-17 -3 -4 -17 13 -22 21 -14 21 2 0 10 -8 17 -17z m4062 -180 c-7 -2 -19 -2
-25 0 -7 3 -2 5 12 5 14 0 19 -2 13 -5z m-3658 -283 c10 -11 16 -20 13 -20 -3
0 -13 9 -23 20 -10 11 -16 20 -13 20 3 0 13 -9 23 -20z m-768 -26 c-3 -3 -12
-4 -19 -1 -8 3 -5 6 6 6 11 1 17 -2 13 -5z m823 -34 c0 -5 -2 -10 -4 -10 -3 0
-8 5 -11 10 -3 6 -1 10 4 10 6 0 11 -4 11 -10z"/>
</g>
</svg>
